<mxfile host="app.diagrams.net" modified="2021-06-27T02:19:45.724Z" agent="5.0 (X11)" etag="uYAHTwXmrSIU61DZnL_-" version="14.8.1" type="github" pages="2">
  <diagram id="jS-cDS1oIRtbwLw3VddK" name="Internet VPN access">
    <mxGraphModel dx="1366" dy="793" grid="1" gridSize="10" guides="1" tooltips="1" connect="1" arrows="1" fold="1" page="1" pageScale="1" pageWidth="850" pageHeight="1100" math="0" shadow="0">
      <root>
        <mxCell id="ji-ib_aXSgprgi3HlLDr-0" />
        <mxCell id="ji-ib_aXSgprgi3HlLDr-1" parent="ji-ib_aXSgprgi3HlLDr-0" />
        <mxCell id="u7onlK5NLSed9dLZQC4h-0" value="&lt;div&gt;Darren&#39;s QTH&lt;br&gt;&lt;/div&gt;&lt;div&gt;&lt;br&gt;&lt;/div&gt;&lt;div&gt;&lt;br&gt;&lt;/div&gt;&lt;div&gt;&lt;br&gt;&lt;/div&gt;&lt;div&gt;&lt;br&gt;&lt;/div&gt;&lt;div&gt;&lt;br&gt;&lt;/div&gt;&lt;div&gt;&lt;br&gt;&lt;/div&gt;&lt;div&gt;&lt;br&gt;&lt;/div&gt;&lt;div&gt;&lt;br&gt;&lt;/div&gt;&lt;div&gt;&lt;br&gt;&lt;/div&gt;&lt;div&gt;&lt;br&gt;&lt;/div&gt;" style="rounded=1;whiteSpace=wrap;html=1;dashed=1;" vertex="1" parent="ji-ib_aXSgprgi3HlLDr-1">
          <mxGeometry x="20" y="430.58" width="292.5" height="180" as="geometry" />
        </mxCell>
        <mxCell id="u7onlK5NLSed9dLZQC4h-1" value="&lt;div&gt;SPARC Clubroom&lt;/div&gt;&lt;div&gt;&lt;br&gt;&lt;/div&gt;&lt;div&gt;&lt;br&gt;&lt;/div&gt;&lt;div&gt;&lt;br&gt;&lt;/div&gt;&lt;div&gt;&lt;br&gt;&lt;/div&gt;&lt;div&gt;&lt;br&gt;&lt;/div&gt;&lt;div&gt;&lt;br&gt;&lt;/div&gt;&lt;div&gt;&lt;br&gt;&lt;/div&gt;&lt;div&gt;&lt;br&gt;&lt;/div&gt;&lt;div&gt;&lt;br&gt;&lt;/div&gt;&lt;div&gt;&lt;br&gt;&lt;/div&gt;" style="rounded=1;whiteSpace=wrap;html=1;dashed=1;" vertex="1" parent="ji-ib_aXSgprgi3HlLDr-1">
          <mxGeometry x="540" y="430" width="292.5" height="180" as="geometry" />
        </mxCell>
        <mxCell id="f65WajdW628cxdIKvrmd-12" value="Mobile user" style="shape=umlActor;verticalLabelPosition=bottom;verticalAlign=top;html=1;outlineConnect=0;" vertex="1" parent="ji-ib_aXSgprgi3HlLDr-1">
          <mxGeometry x="610" y="120" width="30" height="60" as="geometry" />
        </mxCell>
        <mxCell id="f65WajdW628cxdIKvrmd-13" value="Home user" style="shape=umlActor;verticalLabelPosition=bottom;verticalAlign=top;html=1;outlineConnect=0;" vertex="1" parent="ji-ib_aXSgprgi3HlLDr-1">
          <mxGeometry x="210" y="120" width="30" height="57" as="geometry" />
        </mxCell>
        <mxCell id="f65WajdW628cxdIKvrmd-23" value="Remote Power&#xa;Switch" style="fillColor=#ffcccc;strokeColor=#36393d;" vertex="1" parent="ji-ib_aXSgprgi3HlLDr-1">
          <mxGeometry x="560" y="540" width="110" height="50" as="geometry" />
        </mxCell>
        <mxCell id="f65WajdW628cxdIKvrmd-32" value="" style="endArrow=none;strokeColor=#FF0000;endFill=0;rounded=0;dashed=1;exitX=0.25;exitY=0;exitDx=0;exitDy=0;entryX=0.07;entryY=0.4;entryDx=0;entryDy=0;entryPerimeter=0;" edge="1" parent="ji-ib_aXSgprgi3HlLDr-1" source="XMDBYqqmhY5Uk-i6FWlv-5" target="f65WajdW628cxdIKvrmd-38">
          <mxGeometry relative="1" as="geometry">
            <mxPoint x="960" y="520.5799999999999" as="sourcePoint" />
            <mxPoint x="1250" y="405" as="targetPoint" />
            <Array as="points">
              <mxPoint x="96" y="304" />
            </Array>
          </mxGeometry>
        </mxCell>
        <mxCell id="f65WajdW628cxdIKvrmd-37" value="Microwave Link" style="text;whiteSpace=wrap;html=1;" vertex="1" parent="ji-ib_aXSgprgi3HlLDr-1">
          <mxGeometry x="375.59" y="540" width="110" height="20" as="geometry" />
        </mxCell>
        <mxCell id="f65WajdW628cxdIKvrmd-38" value="Internet" style="ellipse;shape=cloud;whiteSpace=wrap;html=1;dashed=1;rotation=0;fillColor=#dae8fc;strokeColor=#6c8ebf;" vertex="1" parent="ji-ib_aXSgprgi3HlLDr-1">
          <mxGeometry x="290" y="239.99999999999997" width="281.18" height="160" as="geometry" />
        </mxCell>
        <mxCell id="f65WajdW628cxdIKvrmd-3" value="Smartphone&#xa;/ Tablet" style="gradientColor=#b3b3b3;fillColor=#f5f5f5;strokeColor=#666666;" vertex="1" parent="ji-ib_aXSgprgi3HlLDr-1">
          <mxGeometry x="480" y="123.5" width="110" height="50" as="geometry" />
        </mxCell>
        <mxCell id="f65WajdW628cxdIKvrmd-5" value="PC / Mac / Linux" style="gradientColor=#b3b3b3;fillColor=#f5f5f5;strokeColor=#666666;" vertex="1" parent="ji-ib_aXSgprgi3HlLDr-1">
          <mxGeometry x="270" y="125" width="110" height="50" as="geometry" />
        </mxCell>
        <mxCell id="f65WajdW628cxdIKvrmd-8" value="RigPi" style="fillColor=#d5e8d4;strokeColor=#82b366;" vertex="1" parent="ji-ib_aXSgprgi3HlLDr-1">
          <mxGeometry x="700" y="465.58000000000004" width="110" height="50" as="geometry" />
        </mxCell>
        <mxCell id="u7onlK5NLSed9dLZQC4h-2" value="" style="endArrow=open;html=1;entryX=0;entryY=0.75;entryDx=0;entryDy=0;exitX=1;exitY=0.75;exitDx=0;exitDy=0;rounded=0;strokeColor=#FF0000;endFill=1;startArrow=open;startFill=0;" edge="1" parent="ji-ib_aXSgprgi3HlLDr-1" source="u7onlK5NLSed9dLZQC4h-0" target="u7onlK5NLSed9dLZQC4h-1">
          <mxGeometry width="50" height="50" relative="1" as="geometry">
            <mxPoint x="300" y="470" as="sourcePoint" />
            <mxPoint x="350" y="420" as="targetPoint" />
          </mxGeometry>
        </mxCell>
        <mxCell id="f65WajdW628cxdIKvrmd-18" value="Transcievers" style="fillColor=#e1d5e7;strokeColor=#9673a6;" vertex="1" parent="ji-ib_aXSgprgi3HlLDr-1">
          <mxGeometry x="700" y="540" width="110" height="50" as="geometry" />
        </mxCell>
        <mxCell id="XMDBYqqmhY5Uk-i6FWlv-0" value="VPN&#xa;Access Point" style="fillColor=#dae8fc;strokeColor=#6c8ebf;" vertex="1" parent="ji-ib_aXSgprgi3HlLDr-1">
          <mxGeometry x="560" y="465.58000000000004" width="110" height="50" as="geometry" />
        </mxCell>
        <mxCell id="XMDBYqqmhY5Uk-i6FWlv-3" value="VPN Tunnel" style="text;whiteSpace=wrap;html=1;" vertex="1" parent="ji-ib_aXSgprgi3HlLDr-1">
          <mxGeometry x="370" y="460" width="110" height="20" as="geometry" />
        </mxCell>
        <mxCell id="XMDBYqqmhY5Uk-i6FWlv-6" value="SPARC&#xa;DMZ" style="fillColor=#dae8fc;strokeColor=#6c8ebf;" vertex="1" parent="ji-ib_aXSgprgi3HlLDr-1">
          <mxGeometry x="154.38" y="465.58000000000004" width="110" height="50" as="geometry" />
        </mxCell>
        <mxCell id="XMDBYqqmhY5Uk-i6FWlv-5" value="Internet&#xa;Router" style="fillColor=#dae8fc;strokeColor=#6c8ebf;" vertex="1" parent="ji-ib_aXSgprgi3HlLDr-1">
          <mxGeometry x="68.13" y="485.58000000000004" width="110" height="50" as="geometry" />
        </mxCell>
        <mxCell id="XMDBYqqmhY5Uk-i6FWlv-8" value="" style="shape=flexArrow;endArrow=classic;html=1;strokeColor=#9673a6;entryX=0;entryY=0.5;entryDx=0;entryDy=0;exitX=0.5;exitY=1;exitDx=0;exitDy=0;fillColor=#e1d5e7;" edge="1" parent="ji-ib_aXSgprgi3HlLDr-1" source="f65WajdW628cxdIKvrmd-5" target="XMDBYqqmhY5Uk-i6FWlv-0">
          <mxGeometry width="50" height="50" relative="1" as="geometry">
            <mxPoint x="170" y="400" as="sourcePoint" />
            <mxPoint x="220" y="350" as="targetPoint" />
            <Array as="points">
              <mxPoint x="360" y="310" />
              <mxPoint x="240" y="491" />
            </Array>
          </mxGeometry>
        </mxCell>
        <mxCell id="XMDBYqqmhY5Uk-i6FWlv-9" value="" style="shape=flexArrow;endArrow=classic;html=1;strokeColor=#9673a6;exitX=0.5;exitY=1;exitDx=0;exitDy=0;fillColor=#e1d5e7;" edge="1" parent="ji-ib_aXSgprgi3HlLDr-1" source="f65WajdW628cxdIKvrmd-3">
          <mxGeometry width="50" height="50" relative="1" as="geometry">
            <mxPoint x="335" y="185" as="sourcePoint" />
            <mxPoint x="560" y="490" as="targetPoint" />
            <Array as="points">
              <mxPoint x="500" y="320" />
              <mxPoint x="240" y="490" />
            </Array>
          </mxGeometry>
        </mxCell>
        <mxCell id="XMDBYqqmhY5Uk-i6FWlv-13" value="" style="endArrow=none;strokeColor=#FF0000;endFill=0;rounded=0;dashed=1;exitX=0.625;exitY=0.2;exitDx=0;exitDy=0;entryX=0.25;entryY=1;entryDx=0;entryDy=0;exitPerimeter=0;" edge="1" parent="ji-ib_aXSgprgi3HlLDr-1" source="f65WajdW628cxdIKvrmd-38" target="f65WajdW628cxdIKvrmd-3">
          <mxGeometry relative="1" as="geometry">
            <mxPoint x="105.63000000000011" y="495.5799999999999" as="sourcePoint" />
            <mxPoint x="319.6826000000001" y="314" as="targetPoint" />
            <Array as="points" />
          </mxGeometry>
        </mxCell>
        <mxCell id="XMDBYqqmhY5Uk-i6FWlv-14" value="" style="endArrow=none;strokeColor=#FF0000;endFill=0;rounded=0;dashed=1;entryX=0.75;entryY=1;entryDx=0;entryDy=0;exitX=0.4;exitY=0.1;exitDx=0;exitDy=0;exitPerimeter=0;" edge="1" parent="ji-ib_aXSgprgi3HlLDr-1" source="f65WajdW628cxdIKvrmd-38" target="f65WajdW628cxdIKvrmd-5">
          <mxGeometry relative="1" as="geometry">
            <mxPoint x="475.73749999999995" y="282" as="sourcePoint" />
            <mxPoint x="517.5" y="183.5" as="targetPoint" />
            <Array as="points" />
          </mxGeometry>
        </mxCell>
        <mxCell id="LylueIG8zUCUzqsILo99-1" value="" style="endArrow=classic;html=1;strokeColor=#FF0000;entryX=0;entryY=0.5;entryDx=0;entryDy=0;exitX=1;exitY=0.5;exitDx=0;exitDy=0;" edge="1" parent="ji-ib_aXSgprgi3HlLDr-1" source="XMDBYqqmhY5Uk-i6FWlv-0" target="f65WajdW628cxdIKvrmd-8">
          <mxGeometry width="50" height="50" relative="1" as="geometry">
            <mxPoint x="620" y="470" as="sourcePoint" />
            <mxPoint x="670" y="420" as="targetPoint" />
          </mxGeometry>
        </mxCell>
        <mxCell id="LylueIG8zUCUzqsILo99-2" value="" style="endArrow=classic;html=1;strokeColor=#FF0000;entryX=0.5;entryY=0;entryDx=0;entryDy=0;exitX=0.5;exitY=1;exitDx=0;exitDy=0;" edge="1" parent="ji-ib_aXSgprgi3HlLDr-1" source="XMDBYqqmhY5Uk-i6FWlv-0" target="f65WajdW628cxdIKvrmd-23">
          <mxGeometry width="50" height="50" relative="1" as="geometry">
            <mxPoint x="420" y="730" as="sourcePoint" />
            <mxPoint x="470" y="680" as="targetPoint" />
          </mxGeometry>
        </mxCell>
        <mxCell id="LylueIG8zUCUzqsILo99-3" value="" style="endArrow=classic;html=1;strokeColor=#FF0000;entryX=0.5;entryY=0;entryDx=0;entryDy=0;exitX=0.5;exitY=1;exitDx=0;exitDy=0;" edge="1" parent="ji-ib_aXSgprgi3HlLDr-1" source="f65WajdW628cxdIKvrmd-8" target="f65WajdW628cxdIKvrmd-18">
          <mxGeometry width="50" height="50" relative="1" as="geometry">
            <mxPoint x="625" y="525.5799999999999" as="sourcePoint" />
            <mxPoint x="625" y="550" as="targetPoint" />
          </mxGeometry>
        </mxCell>
        <mxCell id="LylueIG8zUCUzqsILo99-4" value="" style="endArrow=none;strokeColor=#FF0000;endFill=0;rounded=0;dashed=1;exitX=1;exitY=0.5;exitDx=0;exitDy=0;entryX=0;entryY=0.5;entryDx=0;entryDy=0;" edge="1" parent="ji-ib_aXSgprgi3HlLDr-1" source="f65WajdW628cxdIKvrmd-23" target="f65WajdW628cxdIKvrmd-18">
          <mxGeometry relative="1" as="geometry">
            <mxPoint x="475.73749999999995" y="282" as="sourcePoint" />
            <mxPoint x="517.5" y="183.5" as="targetPoint" />
            <Array as="points" />
          </mxGeometry>
        </mxCell>
        <mxCell id="LylueIG8zUCUzqsILo99-5" value="" style="endArrow=none;strokeColor=#FF0000;endFill=0;rounded=0;dashed=1;exitX=0;exitY=1;exitDx=0;exitDy=0;entryX=1;entryY=0;entryDx=0;entryDy=0;" edge="1" parent="ji-ib_aXSgprgi3HlLDr-1" source="f65WajdW628cxdIKvrmd-8" target="f65WajdW628cxdIKvrmd-23">
          <mxGeometry relative="1" as="geometry">
            <mxPoint x="485.73749999999995" y="292" as="sourcePoint" />
            <mxPoint x="527.5" y="193.5" as="targetPoint" />
            <Array as="points" />
          </mxGeometry>
        </mxCell>
      </root>
    </mxGraphModel>
  </diagram>
  <diagram name="Component model" id="e7e014a7-5840-1c2e-5031-d8a46d1fe8dd">
    <mxGraphModel dx="1366" dy="793" grid="1" gridSize="10" guides="1" tooltips="1" connect="1" arrows="1" fold="1" page="1" pageScale="1" pageWidth="1169" pageHeight="826" background="none" math="0" shadow="0">
      <root>
        <mxCell id="0" />
        <mxCell id="1" parent="0" />
        <mxCell id="4Cmd69NsPVWSAvO28QD8-60" value="" style="edgeStyle=elbowEdgeStyle;elbow=horizontal;strokeColor=#FF0000;endArrow=open;endFill=1;rounded=0;entryX=0;entryY=0.5;entryDx=0;entryDy=0;exitX=1;exitY=0.5;exitDx=0;exitDy=0;" parent="1" source="10" target="33" edge="1">
          <mxGeometry width="100" height="100" relative="1" as="geometry">
            <mxPoint x="410" y="415" as="sourcePoint" />
            <mxPoint x="580" y="255" as="targetPoint" />
            <Array as="points">
              <mxPoint x="480" y="380" />
              <mxPoint x="280" y="479" />
              <mxPoint x="224.5" y="408" />
            </Array>
          </mxGeometry>
        </mxCell>
        <mxCell id="4Cmd69NsPVWSAvO28QD8-61" value="" style="edgeStyle=elbowEdgeStyle;elbow=horizontal;strokeColor=#FF0000;endArrow=open;endFill=1;rounded=0;entryX=0;entryY=0.5;entryDx=0;entryDy=0;exitX=1;exitY=0.5;exitDx=0;exitDy=0;" parent="1" source="7" target="33" edge="1">
          <mxGeometry width="100" height="100" relative="1" as="geometry">
            <mxPoint x="410" y="525" as="sourcePoint" />
            <mxPoint x="580" y="345" as="targetPoint" />
            <Array as="points">
              <mxPoint x="480" y="335" />
              <mxPoint x="290" y="489" />
              <mxPoint x="234.5" y="418" />
            </Array>
          </mxGeometry>
        </mxCell>
        <mxCell id="2" value="Remote users" style="swimlane;whiteSpace=wrap" parent="1" vertex="1">
          <mxGeometry x="164.5" y="128" width="280" height="570" as="geometry" />
        </mxCell>
        <mxCell id="7" value="Smartphone" style="gradientColor=#b3b3b3;fillColor=#f5f5f5;strokeColor=#666666;" parent="2" vertex="1">
          <mxGeometry x="125.5" y="142" width="110" height="50" as="geometry" />
        </mxCell>
        <mxCell id="8" value="Tablet / iPad" style="gradientColor=#b3b3b3;fillColor=#f5f5f5;strokeColor=#666666;" parent="2" vertex="1">
          <mxGeometry x="125.5" y="252" width="110" height="50" as="geometry" />
        </mxCell>
        <mxCell id="10" value="PC / Mac / Linux" style="gradientColor=#b3b3b3;fillColor=#f5f5f5;strokeColor=#666666;" parent="2" vertex="1">
          <mxGeometry x="125.5" y="362" width="110" height="50" as="geometry" />
        </mxCell>
        <mxCell id="3" value="Rig Control" style="swimlane;whiteSpace=wrap" parent="1" vertex="1">
          <mxGeometry x="725" y="128" width="280" height="570" as="geometry" />
        </mxCell>
        <mxCell id="4Cmd69NsPVWSAvO28QD8-57" value="&lt;div&gt;Raspberry Pi&lt;/div&gt;&lt;div&gt;&lt;br&gt;&lt;/div&gt;&lt;div&gt;&lt;br&gt;&lt;/div&gt;&lt;div&gt;&lt;br&gt;&lt;/div&gt;&lt;div&gt;&lt;br&gt;&lt;/div&gt;&lt;div&gt;&lt;br&gt;&lt;/div&gt;&lt;div&gt;&lt;br&gt;&lt;/div&gt;&lt;div&gt;&lt;br&gt;&lt;/div&gt;&lt;div&gt;&lt;br&gt;&lt;/div&gt;&lt;div&gt;&lt;br&gt;&lt;/div&gt;&lt;div&gt;&lt;br&gt;&lt;/div&gt;&lt;div&gt;&lt;br&gt;&lt;/div&gt;&lt;div&gt;&lt;br&gt;&lt;/div&gt;&lt;div&gt;&lt;br&gt;&lt;/div&gt;&lt;div&gt;&lt;br&gt;&lt;/div&gt;&lt;div&gt;&lt;br&gt;&lt;/div&gt;&lt;div&gt;&lt;br&gt;&lt;/div&gt;" style="rounded=1;whiteSpace=wrap;html=1;dashed=1;" parent="3" vertex="1">
          <mxGeometry x="60" y="140" width="160" height="260" as="geometry" />
        </mxCell>
        <mxCell id="16" value="RigPi&#xa;Web interface" style="fillColor=#d5e8d4;strokeColor=#82b366;" parent="3" vertex="1">
          <mxGeometry x="85.5" y="252" width="110" height="50" as="geometry" />
        </mxCell>
        <mxCell id="18" value="Mumble&#xa;VOIP Server" style="fillColor=#d5e8d4;strokeColor=#82b366;" parent="3" vertex="1">
          <mxGeometry x="85.5" y="172" width="110" height="50" as="geometry" />
        </mxCell>
        <mxCell id="30" value="VNC&#xa;Desktop" style="fillColor=#d5e8d4;strokeColor=#82b366;" parent="3" vertex="1">
          <mxGeometry x="85" y="332" width="110" height="50" as="geometry" />
        </mxCell>
        <mxCell id="4" value="Club Station" style="swimlane;whiteSpace=wrap" parent="1" vertex="1">
          <mxGeometry x="1004.5" y="128" width="280" height="570" as="geometry" />
        </mxCell>
        <mxCell id="4Cmd69NsPVWSAvO28QD8-41" value="Mobile user" style="shape=umlActor;verticalLabelPosition=bottom;verticalAlign=top;html=1;outlineConnect=0;" parent="1" vertex="1">
          <mxGeometry x="200" y="320" width="30" height="60" as="geometry" />
        </mxCell>
        <mxCell id="4Cmd69NsPVWSAvO28QD8-42" value="Home user" style="shape=umlActor;verticalLabelPosition=bottom;verticalAlign=top;html=1;outlineConnect=0;" parent="1" vertex="1">
          <mxGeometry x="200" y="430" width="30" height="57" as="geometry" />
        </mxCell>
        <mxCell id="12" value="" style="edgeStyle=elbowEdgeStyle;elbow=horizontal;strokeColor=#FF0000;endArrow=open;endFill=1;rounded=0" parent="1" target="7" edge="1">
          <mxGeometry width="100" height="100" relative="1" as="geometry">
            <mxPoint x="230" y="350" as="sourcePoint" />
            <mxPoint x="424.5" y="318" as="targetPoint" />
            <Array as="points">
              <mxPoint x="260" y="330" />
              <mxPoint x="194.5" y="378" />
            </Array>
          </mxGeometry>
        </mxCell>
        <mxCell id="4Cmd69NsPVWSAvO28QD8-44" value="" style="edgeStyle=elbowEdgeStyle;elbow=horizontal;strokeColor=#FF0000;endArrow=open;endFill=1;rounded=0;entryX=0;entryY=0.5;entryDx=0;entryDy=0;" parent="1" target="8" edge="1">
          <mxGeometry width="100" height="100" relative="1" as="geometry">
            <mxPoint x="230" y="350" as="sourcePoint" />
            <mxPoint x="300" y="305" as="targetPoint" />
            <Array as="points">
              <mxPoint x="260.5" y="305" />
              <mxPoint x="204.5" y="388" />
            </Array>
          </mxGeometry>
        </mxCell>
        <mxCell id="4Cmd69NsPVWSAvO28QD8-45" value="" style="edgeStyle=elbowEdgeStyle;elbow=horizontal;strokeColor=#FF0000;endArrow=open;endFill=1;rounded=0;entryX=0;entryY=0.5;entryDx=0;entryDy=0;" parent="1" source="4Cmd69NsPVWSAvO28QD8-42" target="10" edge="1">
          <mxGeometry width="100" height="100" relative="1" as="geometry">
            <mxPoint x="240" y="360" as="sourcePoint" />
            <mxPoint x="300" y="305" as="targetPoint" />
            <Array as="points">
              <mxPoint x="260" y="459" />
              <mxPoint x="204.5" y="388" />
            </Array>
          </mxGeometry>
        </mxCell>
        <mxCell id="4Cmd69NsPVWSAvO28QD8-46" value="" style="edgeStyle=elbowEdgeStyle;elbow=horizontal;strokeColor=#FF0000;endArrow=open;endFill=1;rounded=0;entryX=0;entryY=0.5;entryDx=0;entryDy=0;" parent="1" target="33" edge="1">
          <mxGeometry width="100" height="100" relative="1" as="geometry">
            <mxPoint x="400" y="405" as="sourcePoint" />
            <mxPoint x="300" y="525" as="targetPoint" />
            <Array as="points">
              <mxPoint x="480" y="330" />
              <mxPoint x="270" y="469" />
              <mxPoint x="214.5" y="398" />
            </Array>
          </mxGeometry>
        </mxCell>
        <mxCell id="4Cmd69NsPVWSAvO28QD8-48" value="Icom&#xa;IC-7300" style="fillColor=#e1d5e7;strokeColor=#9673a6;" parent="1" vertex="1">
          <mxGeometry x="1100" y="300" width="110" height="50" as="geometry" />
        </mxCell>
        <mxCell id="4Cmd69NsPVWSAvO28QD8-49" value="Yaesu&#xa;FT-991A" style="fillColor=#e1d5e7;strokeColor=#9673a6;" parent="1" vertex="1">
          <mxGeometry x="1100" y="380" width="110" height="50" as="geometry" />
        </mxCell>
        <mxCell id="4Cmd69NsPVWSAvO28QD8-50" value="Network Access" style="swimlane;whiteSpace=wrap" parent="1" vertex="1">
          <mxGeometry x="445" y="128" width="280" height="570" as="geometry" />
        </mxCell>
        <mxCell id="33" value="VPN&#xa;Access Point" style="fillColor=#dae8fc;strokeColor=#6c8ebf;" parent="4Cmd69NsPVWSAvO28QD8-50" vertex="1">
          <mxGeometry x="105" y="182" width="110" height="50" as="geometry" />
        </mxCell>
        <mxCell id="4Cmd69NsPVWSAvO28QD8-59" value="Internet" style="ellipse;shape=cloud;whiteSpace=wrap;html=1;dashed=1;rotation=-90;fillColor=#dae8fc;strokeColor=#6c8ebf;" parent="4Cmd69NsPVWSAvO28QD8-50" vertex="1">
          <mxGeometry x="-102.58" y="238.5" width="281.18" height="63.1" as="geometry" />
        </mxCell>
        <mxCell id="4Cmd69NsPVWSAvO28QD8-56" value="Remote Power&#xa;Switch&#xa;" style="fillColor=#ffcccc;strokeColor=#36393d;" parent="1" vertex="1">
          <mxGeometry x="950" y="600" width="110" height="50" as="geometry" />
        </mxCell>
        <mxCell id="4Cmd69NsPVWSAvO28QD8-64" value="" style="edgeStyle=elbowEdgeStyle;elbow=horizontal;strokeColor=#FF0000;endArrow=open;endFill=1;rounded=0;entryX=0;entryY=0.5;entryDx=0;entryDy=0;exitX=0.5;exitY=0;exitDx=0;exitDy=0;exitPerimeter=0;" parent="1" source="4Cmd69NsPVWSAvO28QD8-62" target="16" edge="1">
          <mxGeometry width="100" height="100" relative="1" as="geometry">
            <mxPoint x="410" y="305" as="sourcePoint" />
            <mxPoint x="560" y="345" as="targetPoint" />
            <Array as="points">
              <mxPoint x="760" y="380" />
              <mxPoint x="300" y="499" />
              <mxPoint x="244.5" y="428" />
            </Array>
          </mxGeometry>
        </mxCell>
        <mxCell id="4Cmd69NsPVWSAvO28QD8-65" value="" style="edgeStyle=elbowEdgeStyle;elbow=horizontal;strokeColor=#FF0000;endArrow=open;endFill=1;rounded=0;exitX=0.5;exitY=0;exitDx=0;exitDy=0;exitPerimeter=0;" parent="1" source="4Cmd69NsPVWSAvO28QD8-62" target="18" edge="1">
          <mxGeometry width="100" height="100" relative="1" as="geometry">
            <mxPoint x="509.7600000000002" y="433" as="sourcePoint" />
            <mxPoint x="820.5" y="415" as="targetPoint" />
            <Array as="points">
              <mxPoint x="760" y="380" />
              <mxPoint x="310" y="509" />
              <mxPoint x="254.5" y="438" />
            </Array>
          </mxGeometry>
        </mxCell>
        <mxCell id="4Cmd69NsPVWSAvO28QD8-66" value="" style="edgeStyle=elbowEdgeStyle;elbow=horizontal;strokeColor=#FF0000;endArrow=open;endFill=1;rounded=0;entryX=0;entryY=0.5;entryDx=0;entryDy=0;" parent="1" target="30" edge="1">
          <mxGeometry width="100" height="100" relative="1" as="geometry">
            <mxPoint x="500" y="423" as="sourcePoint" />
            <mxPoint x="820.5" y="335" as="targetPoint" />
            <Array as="points">
              <mxPoint x="760" y="450" />
              <mxPoint x="320" y="519" />
              <mxPoint x="264.5" y="448" />
            </Array>
          </mxGeometry>
        </mxCell>
        <mxCell id="4Cmd69NsPVWSAvO28QD8-55" value="" style="endArrow=none;strokeColor=#FF0000;endFill=0;rounded=0;dashed=1;entryX=0.5;entryY=1;entryDx=0;entryDy=0;exitX=1;exitY=0.5;exitDx=0;exitDy=0;exitPerimeter=0;" parent="1" source="4Cmd69NsPVWSAvO28QD8-62" target="33" edge="1">
          <mxGeometry relative="1" as="geometry">
            <mxPoint x="450.5" y="730" as="sourcePoint" />
            <mxPoint x="557.5" y="730" as="targetPoint" />
          </mxGeometry>
        </mxCell>
        <mxCell id="4Cmd69NsPVWSAvO28QD8-67" value="" style="edgeStyle=elbowEdgeStyle;elbow=horizontal;strokeColor=#FF0000;endArrow=open;endFill=1;rounded=0;entryX=0;entryY=0.5;entryDx=0;entryDy=0;exitX=0.5;exitY=0;exitDx=0;exitDy=0;exitPerimeter=0;" parent="1" source="4Cmd69NsPVWSAvO28QD8-62" target="4Cmd69NsPVWSAvO28QD8-56" edge="1">
          <mxGeometry width="100" height="100" relative="1" as="geometry">
            <mxPoint x="510" y="433" as="sourcePoint" />
            <mxPoint x="820" y="495" as="targetPoint" />
            <Array as="points">
              <mxPoint x="760" y="520" />
              <mxPoint x="330" y="529" />
              <mxPoint x="274.5" y="458" />
            </Array>
          </mxGeometry>
        </mxCell>
        <mxCell id="32" value="" style="endArrow=none;strokeColor=#FF0000;endFill=0;rounded=0;dashed=1;entryX=0.25;entryY=0;entryDx=0;entryDy=0;exitX=0.5;exitY=1;exitDx=0;exitDy=0;" parent="1" source="4Cmd69NsPVWSAvO28QD8-57" target="4Cmd69NsPVWSAvO28QD8-56" edge="1">
          <mxGeometry relative="1" as="geometry">
            <mxPoint x="930" y="570" as="sourcePoint" />
            <mxPoint x="837.5" y="730" as="targetPoint" />
            <Array as="points">
              <mxPoint x="865" y="560" />
              <mxPoint x="978" y="560" />
            </Array>
          </mxGeometry>
        </mxCell>
        <mxCell id="4Cmd69NsPVWSAvO28QD8-68" value="" style="endArrow=none;strokeColor=#FF0000;endFill=0;rounded=0;dashed=1;exitX=1;exitY=0.5;exitDx=0;exitDy=0;entryX=1;entryY=0.5;entryDx=0;entryDy=0;" parent="1" source="4Cmd69NsPVWSAvO28QD8-48" target="4Cmd69NsPVWSAvO28QD8-56" edge="1">
          <mxGeometry relative="1" as="geometry">
            <mxPoint x="875" y="538" as="sourcePoint" />
            <mxPoint x="1100" y="602" as="targetPoint" />
            <Array as="points">
              <mxPoint x="1250" y="325" />
              <mxPoint x="1250" y="625" />
            </Array>
          </mxGeometry>
        </mxCell>
        <mxCell id="4Cmd69NsPVWSAvO28QD8-73" value="Antenna&#xa;Rotator" style="fillColor=#ffe6cc;strokeColor=#d79b00;" parent="1" vertex="1">
          <mxGeometry x="1100" y="460" width="110" height="50" as="geometry" />
        </mxCell>
        <mxCell id="4Cmd69NsPVWSAvO28QD8-75" value="" style="endArrow=none;strokeColor=#FF0000;endFill=0;rounded=0;dashed=1;exitX=1;exitY=0.5;exitDx=0;exitDy=0;" parent="1" source="4Cmd69NsPVWSAvO28QD8-49" edge="1">
          <mxGeometry relative="1" as="geometry">
            <mxPoint x="1020" y="530" as="sourcePoint" />
            <mxPoint x="1250" y="405" as="targetPoint" />
            <Array as="points" />
          </mxGeometry>
        </mxCell>
        <mxCell id="4Cmd69NsPVWSAvO28QD8-76" value="" style="edgeStyle=elbowEdgeStyle;elbow=horizontal;strokeColor=#FF0000;endArrow=open;endFill=1;rounded=0;entryX=0;entryY=0.5;entryDx=0;entryDy=0;exitX=1;exitY=0.5;exitDx=0;exitDy=0;" parent="1" source="4Cmd69NsPVWSAvO28QD8-57" target="4Cmd69NsPVWSAvO28QD8-73" edge="1">
          <mxGeometry width="100" height="100" relative="1" as="geometry">
            <mxPoint x="900" y="545.58" as="sourcePoint" />
            <mxPoint x="1210" y="607.58" as="targetPoint" />
            <Array as="points">
              <mxPoint x="1040" y="440" />
              <mxPoint x="720" y="641.58" />
              <mxPoint x="664.5" y="570.58" />
            </Array>
          </mxGeometry>
        </mxCell>
        <mxCell id="4Cmd69NsPVWSAvO28QD8-77" value="" style="edgeStyle=elbowEdgeStyle;elbow=horizontal;strokeColor=#FF0000;endArrow=open;endFill=1;rounded=0;entryX=0;entryY=0.5;entryDx=0;entryDy=0;exitX=1;exitY=0.5;exitDx=0;exitDy=0;" parent="1" source="4Cmd69NsPVWSAvO28QD8-57" target="4Cmd69NsPVWSAvO28QD8-49" edge="1">
          <mxGeometry width="100" height="100" relative="1" as="geometry">
            <mxPoint x="930" y="495" as="sourcePoint" />
            <mxPoint x="1110" y="415" as="targetPoint" />
            <Array as="points">
              <mxPoint x="1040" y="405" />
              <mxPoint x="730" y="651.58" />
              <mxPoint x="674.5" y="580.58" />
            </Array>
          </mxGeometry>
        </mxCell>
        <mxCell id="4Cmd69NsPVWSAvO28QD8-79" value="" style="edgeStyle=elbowEdgeStyle;elbow=horizontal;strokeColor=#FF0000;endArrow=open;endFill=1;rounded=0;entryX=0;entryY=0.5;entryDx=0;entryDy=0;exitX=1;exitY=0.5;exitDx=0;exitDy=0;" parent="1" source="4Cmd69NsPVWSAvO28QD8-57" target="4Cmd69NsPVWSAvO28QD8-48" edge="1">
          <mxGeometry width="100" height="100" relative="1" as="geometry">
            <mxPoint x="930.5" y="402.5" as="sourcePoint" />
            <mxPoint x="1110" y="347.5" as="targetPoint" />
            <Array as="points">
              <mxPoint x="1040" y="380" />
              <mxPoint x="750" y="671.58" />
              <mxPoint x="694.5" y="600.58" />
            </Array>
          </mxGeometry>
        </mxCell>
        <mxCell id="4Cmd69NsPVWSAvO28QD8-62" value="" style="shape=cylinder3;whiteSpace=wrap;html=1;boundedLbl=1;backgroundOutline=1;size=5.2450000000000045;dashed=1;rotation=-90;fillColor=#dae8fc;strokeColor=#6c8ebf;" parent="1" vertex="1">
          <mxGeometry x="606.42" y="300.42" width="31.84" height="245.16" as="geometry" />
        </mxCell>
        <mxCell id="4Cmd69NsPVWSAvO28QD8-63" value="VPN Tunnel" style="text;whiteSpace=wrap;html=1;" parent="1" vertex="1">
          <mxGeometry x="572.91" y="412.99" width="110" height="20" as="geometry" />
        </mxCell>
      </root>
    </mxGraphModel>
  </diagram>
</mxfile>
